<svg version="1.1" id="Calque_1" xmlns="http://www.w3.org/2000/svg" x="0" y="0" viewBox="0 0 163.07 90.9" xml:space="preserve"><style>.st3{fill:#fdfefe}.st4{fill:#fff}</style><path d="M131.3 77.22H37.34c-17.47 0-31.77-14.3-31.77-31.77s14.3-31.77 31.77-31.77h93.96c17.47 0 31.77 14.3 31.77 31.77 0 17.48-14.3 31.77-31.77 31.77z" fill="#3b6ab3"/><path d="M131.48 70.95H36.6c-14.02 0-25.5-11.47-25.5-25.5v0c0-14.02 11.47-25.5 25.5-25.5h94.87c14.02 0 25.5 11.47 25.5 25.5v0c0 14.03-11.47 25.5-25.49 25.5z" fill="none" stroke="#fff" stroke-miterlimit="10"/><path d="M.95 23.29c-1.26 2.64-1.26 41.13 0 43.77 1.26 2.64 34.72 23.85 39 23.85s39.44-21.44 40.12-23.29 1.54-41.09 0-44.33S45.77 0 40.51 0 2.21 20.65.95 23.29z" fill="#3b6ab3" stroke="#fff" stroke-miterlimit="10"/><path class="st3" d="M52.99 61.92c.1-.15.28-.34.34-.47-.19.11-.31.26-.34.47zM28.67 43.73l-.02-.22c-.02.04-.04.08-.06.11l.08.11zM28.58 43.62l-.31-.38c.12.58.21.55.31.38zM55.32 58.25c.3-.25.58-.54.79-.87l-.79.87zM51.06 59.18c-.07-.03-.16-.03-.31 0 .11.03.22.02.31 0zM53.02 28.34c.07-.01.13-.01.2-.02-.09-.01-.15-.01-.2.02zM50.26 27.29c-.2-.14-.39-.25-.57-.34l-.07.04c.05.13.44.24.64.3zM51.05 28.23l-.53-.27c.19.11.36.2.53.27zM34.29 30.18l.07.31c.01-.15-.01-.25-.07-.31zM53.78 28.34c-.18-.03-.37-.03-.56-.01.27.05.65.25.56.01zM52.98 62.09c-.01-.07.01-.12.01-.17-.06.1-.09.17-.01.17zM57.74 56.94l-.05.02c-.2.14-.12.09.05-.02zM40.35 32.37l.59-.39.92.42c-.41-.26-.72-.45-.93-.55-.46.26-.6.42-.58.52z"/><path class="st3" d="M61.28 37.03c-.23.1-.35.1-.41-.09-.06-.18-.06-.48-.07-.79 0-.62 0-1.31-.45-1.02.1.49.18.96.19 1.37 0 .2-.02.4-.07.55a.76.76 0 0 1-.25.32c-.51-.6.05-2.1-.72-2.08.1.38.2.79.3 1.24-.19.47-.44.37-.63.31s-.33-.12-.3.19c1.05.99-.41 3.42-.25 4.52l-.1-.4-.5 1.7c-.02.02-.04 0-.06.01.06.03.12.06.19.08-.52.68-.89 1.95-.77 3.36.6.54.2 4.47.7 5.12-.15-.59-.16-1.1 0-1.84l.72.12c-.01 1.33-.67.08-.24 1.36.98-.22 0-1.84.11-2.77.22.34.42.81.52 1.39.04-1.87.37-3.66-.6-4.95.21-.53.62-.28.72.12-.57-1.36.56-.99.04-2.15.91.4.47 2.8.99 3.96-.72 1.73-.04 3.99.1 5.91-.67.08-1.24-1.28-1.63-.52-.22.95-.13 1.42.06 1.79.19.38.49.61.68 1.25-.17 1.03-.7.39-.98.74-.24.02-.52.1-.89.3.15-.23.26-.43.34-.62l-.06-.14c-.05.01-.09.02-.13.03-.59-.06-.55.05-.54.27.02.2.05.48-.29.56.33.1.46.3 1.21-.15.4.18-.16.65-.48.88l.23-.1c-.04.29-.08.59-.24.85-.15.26-.45.5-1.1.73.46-.91-1.14.16-1.56.1l.25-.28c-.77.65-1.7 1.08-2.19 1.48l-.02-.15c-.54.57-.44 1.31-1.46 1.71-.04-.3.71-1.6-.27-.9-.06-.45 1.07-1.14 2.09-1.53-1.02.4-1.83.07-.7-.62-.58-.29-.97.81-1.71.95.19.08.08.35.21.47-.39-.61-2.28 1.23-2.07 1.68l.94-.99c.37.46-.86 1.59-.24 1.61-.98-.49-2.78 2.09-3.75 1.76l.64.18c-1.04.45-1.89 1.07-2.7 1.75l-.6.52c-.21.18-.36.33-.67.57-.56.45-1.17.92-1.85 1.41-.49-.2-1.02-.44-1.58-.72.74.23 1.11-.02 1.58-.04.34-.4.71-.72 1.49-.99-1.28.62-1.48.47-1.48.17.01-.31.17-.74-.01-.93 0-.04-.03-.09-.06-.14-1.14-1.07-.94.53-1.62.5l1.35.56c-.43.09-1.06-.12-1.68-.43-.55-.26-1.11-.63-1.69-1.03-1.16-.8-2.41-1.7-3.78-2.06-.03-.36.57.13.95.21-.78-1.13-1.1-.48-1.86-.65-1.04-.7-2.35-1.75-1.17-1.92-.47-.37-.53-.28-.56-.11-.03.17.02.44-.42.32l-.11-.25c-.27-.03-.57-.07-.87-.11-.16-.24-.33-.52-.49-.85.06-.41.13-.83.21-1.22.08-.35.18-.64.28-.94.22-.59.49-1.09.83-1.36-.14-2.84-1.65-.99-1.92-3.06.38-1.16.56.22.84.33l-.07-1.83c.81.65.41 2.13 1.35 2.02-.96-1.53-.27-2.07-.9-4.13l-.08.13c-.65-.91-.2-3.02-.32-4.22.39.49.44 1.81.58 2.69.32-1.34.01-4.74-.84-5.9.07-.42.18-1.24.33-1.6.15-.4.32-.42.49.24.01-.28.01-.52 0-.73.73-.5.68-.81.74-1.14.03-.16.09-.33.31-.55.23-.22.45-.38.95-.61l.25.6c2.68-.53 3.94-3.31 6.47-3.84l-.27-.75c.54.06 1.89-.56 2.1-.34l-1.08.95c.52.01.71-.17.92-.45.21-.27.43-.64.82-.9.17.08.37.22.58.43.01-.14-.27-.53-.59-.94-.28-.04-.58-.07-.6-.2l-.93.62-.86.55c-.43.28-.87.55-1.32.81-.89.52-1.8 1.01-2.71 1.5L31.8 37.3l-.68.38-.8.46-1.96 1.18c.01.82.04 1.64.09 2.44l.02.3.02.21.04.41.11.83c.1-.2.2-.44.35-.3-.19.58.02 1.64-.4 1.47l-.06-.19c.18 1.38-.78 2.63-.77 3.46.53.54-.22 2.86.69 2.24l-.57.91c.34.3.78.15.95.71-.07.95-.43.97-.66.22-.12 1.28-.19 2.64-.22 4.03-.01.7-.01 1.4 0 2.1.02 1.07.04 2.15.05 3.21.82.43 1.63.86 2.43 1.28l.47.23.38.18.75.36-1.07-.12c.67.63 3.2.95 2 1.52 1.79.52 4.15 2.71 4.82 1.79.06.18.15.36.28.53.13.17.23.3.6.57.64.47 1.45.97 2.32 1.45.48-.28.99-.58 1.49-.9.25-.16.5-.32.76-.47l.38-.24.24-.17c.59-.41 1.17-.83 1.73-1.19-.85-.63 1.67-1.26 2.04-1.98.67.48-1.46 1.71-1.25 2.17 1.69-2.29 6.67-2.81 6.68-5.03.31-.09.35-.02.29.1.44-.24 1.18-.28 1.65-.45.09-.44-.92-.04.06-.74.86-.4.66.33 1.12.35.63-.59 1.48-1.24 2.21-1.85.07-.06.23-.18.36-.28l.39-.3c.24-.19.46-.38.64-.54.36-.33.57-.6.59-.79a.899.899 0 0 0-.17-.28c.21-.55.65-1.3.79-.35-.15-1.12-.22-2.02-.24-2.36-.02-.44 0-.79.03-1.14.06-.7.14-1.4-.05-2.85.02 1.02.82.51.5 1.98 1.09-1.15-.2-4.47.38-6.78l-.7-.94c-.12-1.41.55-1.5.8-.51.43-2.4 0-3.68 0-5.51.09-.11.22-.03.19.28l.02-3.71c-.07-.17-.17-.53-.3-.83-.64-.17-1.21-.24-1.29.02.28 0 .59.04.97.16.12.49.16 1.48-.01 3z"/><path class="st3" d="M60.29 33.87h-.16l.14.08c-.01-.04.01-.06.02-.08zM56.3 56.27c.31.02.54-.01.71-.06-.16-.03-.37-.03-.71.06z"/><path class="st3" d="M37.13 26.05c.83.76 1.28-.92 2.51-1.28-.96.72-.36 1.1-.1 1.31.24-1.11.86-1.11 1.42-1.09.18.21.36.42.57.61.23.2.41.32.84.52-.3.34-.98.02-1.12.52.16 0 .32 0 .59.07.38.14.77.27 1.14.38.73.22 1.38.32 1.71.07 2.03 1.19 3.32 2.27 4.6 2.89-1.62-.6-.66.5-2.07.43 1.94.11 5.8 1.15 8.52 1.49-.17.88-.11 1.02-.77 1.52 2.13 1.91 1.14-.23 3.25 1.31l-.95-.74c1.18.4 1.9-.09 2.86-.17l-1.93-1.08-1.38-.75c.16-.24.65-.1 1.17.13.28.13.48.22.82.4.38.2.72.38.96.47.93.15.43-.29-.3-.85L59.2 32l-.14-.1-.07-.07c-.09-.09-.17-.17-.23-.24-.12-.15-.16-.28-.02-.36-.63.16-1.62-.6-2.4-.83l.04-.34c-1.1-1.03-2.2-.77-3.34-1.46-.06-.14-.04-.2.01-.24-.58.06-1.2.19-1.97-.12l.55.28c-1.35.06-4-.96-2.83.67l-2.63-1.83c.72-.52 1.91-1.26 3.54-.4l.36-.19c-.96-1.1-3.68-1.45-3.26-.39-.92.41-1.82.05-2.73-.55-.46-.3-.89-.64-1.4-1.01-.54-.39-1.13-.79-1.68-1.1-.43.26-.84.57-1.17.9-.27-.32.44-.96 1.18-1.66.22.04.44.08.62.09.89.46 1.56.84 1.4 1.26 2.82 1.33.35-1.76 3.19.14 1.3 1.08-2.19-.3-.11 1.02l2.26-.38c-1.33-.75-2.64-1.24-3.79-1.71-.21-.09-.42-.18-.62-.26-.34-.17-.68-.34-1.01-.51l-1.92-.99c-.99.61-1.93 1.18-2.83 1.74-.52.33-1.03.63-1.51.9-.96.55-1.81.99-2.53 1.33-1.43.69-2.3 1-2.3 1L19.4 33.83l.27 18.34c.21 3.14.15 4.27 1.61 5.52.3-.65.16-2.57.67-1.92-.55-.34-.84-1.53-.79-3.17.53-.17.26 1.5.38 1.08l.04-.31c.27.17.46.45.47.96.81-1.83.64-5.28-.38-6.59.55-1.49.83 1.02 1.25 1.79.21-2.63.29-4.83.32-7.05.02-1.95.03-3.91.05-6.26-.3-.17-.46-.3-.58-.44-.11-.22.12-.32.17-.86.2.02.39.05.56.09-.13-.03-.17-.24-.26-.42-.1-.18-.27-.33-.85-.12.86-.27 1.36-.54 1.77-.87.41-.33.68-.7.91-1.1.46-.78.75-1.63 1.56-2.32l.12.5c1.47-.92 1.9-1.18 3.08-2.14 2.86-.55-2.05 1.32-.8 1.99l.59-.56c-.17.62-.22 1.59-.82 2.31 1.94-1.98 3.48-1.6 5.7-3.54-.03.64-2.09 2.28-2.68 2.68.88-.43 2.21-1.63 2.52-1.23l-.16-.69c1.46-.92.11.66.81.77 3.52-2.09-.59-2.2 2.2-4.22zM59.24 50.96c.06-.49.03-.92-.04-1.3-.01.43 0 .87.04 1.3zM57.96 42.86a.874.874 0 0 1-.25-.15c.06.14.14.19.25.15zM57.01 42.05c.31-.2.31.32.7.65-.22-.52-.22-1.87-.7-.65z"/><path class="st3" d="M42.37 42.75c-.21-.23-.49-1.28-.64-1.01l.35 1.55.29-.54zM41.84 45.93l-.16 1.55.99.96c-.12-1.64-.7-.87-.83-2.51zM41.63 50.26l-.25-.33c.12.32.19.38.25.33z"/><path class="st3" d="M42.02 50.3l.71.55-.63-1.96-.08.77c-.23.03-.29.52-.4.6l.53.72c-.06-.18-.2-.54-.13-.68zM42.17 52c.07-.05.12-.11.19-.15-.08-.01-.14.05-.19.15zM41.19 56c.2-.67.59-.37.85-.72.08-.73-.11-.78-.29-.93-.19-.13-.37-.37-.26-1.05.32.74.39.43.45.01.05-.44.07-1.07.25-1.31-.61.3-.98 1.07-1.05 2.83.13-.07.27-.14.4-.22.04.72-.22.59-.35 1.39zM47 53.03l-.8 1.12c-.14-.1-.74.13-1.09.18-.4.07-.7.05-.7-.31-.36.29-.45.66-.88 1.08-.28-.22-.27-.51-.99.38.81-.18 1.22-.23 1.56-.27.37-.06.69-.13 1.84-.63.02.15-.28.28-.57.4l1.63-.47c-.23-.76 1.64-1.8 0-1.48zM49.37 52.32c-1.16.65-1.53 1.51-.76 1.57l2.28-1.77c-.73.4-1.61.93-1.52.2zM50.86 51.54h.1c.17-.12.41-.33.54-.69.12-.35.12-.85-.19-1.27.1 1.52-.81.59-.42 1.92-.01.01-.02.02-.03.04zM51.51 42.3l-.42 2.61c-.83.49-.26-1.25-.63-2.05-.17 2.22.1 1.51.62 3.19-.05.64.38 1.62.61 2.37-.68-3.38 1.34-3.55-.18-6.12zM50.67 47.52l.34.3-.26-1.25zM49.12 36.86c-.91-1.61-2.91-.94-4.28-2.17.19.04.12-.1.5-.02l-1.38-.63.04-.23c-.1.28-.52.28-1.02.23-.54-.08-1.16-.22-1.48-.13.61.68.78.57 1.03.5.24-.07.45-.15.88.47-.42.08-.82.32-1.2.36.96.18 1.33-.01 1.85-.11.92.42.49.57.45.8 1.15.23 1.57-.52 2.99.48.73.98-.96.4.8 1.11-.19-.63.21-.37.78.02.55.39 1.3.93 1.89.92.3.21.55.42.73.61-.25 1.11-.65 1.58-.9 1.45.72-.32 1.34 1.08 1.55 2.11l-.3-1.19-.3-1.29c.28-.38.57-.82.85-1.34-.02-.08-.04-.17-.06-.24-.88-.29-1.51-.55-2.11-.87-.33-.17-.53-.29-.77-.43-.23-.15-.47-.3-.72-.46l.18.05z"/><path class="st3" d="M42.22 35.24c-.14-.02-.25-.01-.4-.04.12.09.24.07.4.04zM50.55 40.88c-.06-.13-.11-.25-.17-.36-.08.11-.16.22-.24.31.13.01.27.02.41.05zM41.34 35.45c.14.11.28-.14.11-.26-.12.09-.22.18-.3.29l.19-.03zM40.53 34.92c-.2-.07-.43-.13-.7-.16-.07.2-.09.36-.18.57l.88-.41zM30.33 60.03c.3-1.01-.29-.7-.71-.79-.06.89.06.84.23.7s.38-.32.48.09zM46.97 61.83c-1.19.24-1.82 1.25-2.82 1.8 1.03-.26 2.15-1.09 2.82-1.8zM53.48 55.87c-.16.3-.45.58.12.34l-.46 1.45c1.63-.52.61-1.42.34-1.79zM55.98 51.27l.4 1.58.03-.82c.41.4.61.69.95 1.29-.23-1.17-.63-2.29-1.38-2.05zM57.54 54.51c-.01-.04-.02-.09-.03-.14-.01-.04-.02-.09-.03-.21-.13.22-.28.15.06.35zM57.46 53.53c-.05-.08-.08-.14-.12-.21.05.28.1.57.13.84.1-.13.18-.3-.01-.63zM56.49 50.08l-.11-2.74-.2 1.04c.63.23-.38 1.27.31 1.7zM57.04 36.61c.21-.11.41-.25.62-.4.01-.05.01-.09.01-.14-.19-.11-.46-.19-.7-.22l-.18-.02c-.06 0-.09 0-.22-.04-.21-.07-.43-.14-.63-.2-.81-.28-1.49-.62-1.68-1.28.46.72-1.6-.13.09 1.08.44-.02 1.11.2 1.81.53.2.09.41.19.62.29.12.06.23.14.31.21-.02.06-.03.13-.05.19zM53.5 33.27c.34-.01.04-.34-.07-.6-.5-.38-1.23-.48-1.07-.08.87-.45.33.78 1.14.68zM46.54 29.21c.44.25 1.08.56.53.04-1.33-.75-1.35.06-2.23.04.91.97 2.36.7 1.7-.08zM35.25 23.83c.41.38 1.43-.28 1.59-.58-.3.28-1.02.5-1.59.58zM37.19 27.84l.43-.11.04-.96zM29.44 32.69l-.76 1.02 1.47-.92zM27.85 33.43l-1.31.78.57-.08c.71-.22.3-.44.74-.7zM24.02 35.7c.05-.09.16-.05.31-.04l1.04-.98-.73.54c-.22.17-.57.41-.62.48zM19.92 57.85c-.54-.34-.2 1.05-.32 1.47.14.08.83-.82.32-1.47z"/><g><path class="st4" d="M119.19 41.37h4.84v4.84h-4.84z"/><path class="st4" d="M133.1 32.52h-20.91v16.51l-10.26-16.39v-.11h-4.88v25.86h4.88V41.81l10.26 16.39v.18h4.88V37.01l14.74.07s4.82.47 4.82 8.37c0 7.9-4.7 8.45-4.7 8.45H124.03v-5.22h-4.84v9.71h13.36s9.8-.39 9.8-12.93-9.25-12.94-9.25-12.94z"/></g></svg>