<?xml version="1.0" encoding="utf-8"?>
<!-- Generator: Adobe Illustrator 23.0.2, SVG Export Plug-In . SVG Version: 6.00 Build 0)  -->
<svg version="1.1" id="Calque_1" xmlns="http://www.w3.org/2000/svg" xmlns:xlink="http://www.w3.org/1999/xlink" x="0px" y="0px"
	 viewBox="0 0 163.07 90.9" style="enable-background:new 0 0 163.07 90.9;" xml:space="preserve">
<style type="text/css">
	.st0{fill:#3B6AB3;}
	.st1{fill:none;stroke:#FFFFFF;stroke-miterlimit:10;}
	.st2{fill:#3B6AB3;stroke:#FFFFFF;stroke-miterlimit:10;}
	.st3{fill:#FDFEFE;}
	.st4{fill:#FFFFFF;}
</style>
<path class="st0" d="M131.3,77.22H37.34c-17.47,0-31.77-14.3-31.77-31.77v0c0-17.47,14.3-31.77,31.77-31.77h93.96
	c17.47,0,31.77,14.3,31.77,31.77v0C163.07,62.93,148.77,77.22,131.3,77.22z"/>
<path class="st1" d="M131.48,70.95H36.6c-14.02,0-25.5-11.47-25.5-25.5v0c0-14.02,11.47-25.5,25.5-25.5h94.87
	c14.02,0,25.5,11.47,25.5,25.5v0C156.97,59.48,145.5,70.95,131.48,70.95z"/>
<path class="st2" d="M0.95,23.29c-1.26,2.64-1.26,41.13,0,43.77c1.26,2.64,34.72,23.85,39,23.85s39.44-21.44,40.12-23.29
	s1.54-41.09,0-44.33S45.77,0,40.51,0S2.21,20.65,0.95,23.29z"/>
<g>
	<g>
		<g>
			<g>
				<g>
					<path class="st3" d="M52.99,61.92c0.1-0.15,0.28-0.34,0.34-0.47C53.14,61.56,53.02,61.71,52.99,61.92z"/>
					<path class="st3" d="M28.67,43.73l-0.02-0.22c-0.02,0.04-0.04,0.08-0.06,0.11L28.67,43.73z"/>
					<path class="st3" d="M28.58,43.62l-0.31-0.38C28.39,43.82,28.48,43.79,28.58,43.62z"/>
					<path class="st3" d="M55.32,58.25c0.3-0.25,0.58-0.54,0.79-0.87L55.32,58.25z"/>
					<path class="st3" d="M51.06,59.18c-0.07-0.03-0.16-0.03-0.31,0C50.86,59.21,50.97,59.2,51.06,59.18z"/>
					<path class="st3" d="M53.02,28.34c0.07-0.01,0.13-0.01,0.2-0.02C53.13,28.31,53.07,28.31,53.02,28.34z"/>
					<path class="st3" d="M50.26,27.29c-0.2-0.14-0.39-0.25-0.57-0.34l-0.07,0.04C49.67,27.12,50.06,27.23,50.26,27.29z"/>
					<path class="st3" d="M51.05,28.23l-0.53-0.27C50.71,28.07,50.88,28.16,51.05,28.23z"/>
					<path class="st3" d="M34.29,30.18l0.07,0.31C34.37,30.34,34.35,30.24,34.29,30.18z"/>
					<path class="st3" d="M53.78,28.34c-0.18-0.03-0.37-0.03-0.56-0.01C53.49,28.38,53.87,28.58,53.78,28.34z"/>
					<path class="st3" d="M52.98,62.09c-0.01-0.07,0.01-0.12,0.01-0.17C52.93,62.02,52.9,62.09,52.98,62.09z"/>
					<path class="st3" d="M57.74,56.94l-0.05,0.02C57.49,57.1,57.57,57.05,57.74,56.94z"/>
					<path class="st3" d="M40.35,32.37l0.59-0.39l0.92,0.42c-0.41-0.26-0.72-0.45-0.93-0.55C40.47,32.11,40.33,32.27,40.35,32.37z"
						/>
					<path class="st3" d="M61.28,37.03c-0.23,0.1-0.35,0.1-0.41-0.09c-0.06-0.18-0.06-0.48-0.07-0.79c0-0.62,0-1.31-0.45-1.02
						c0.1,0.49,0.18,0.96,0.19,1.37c0,0.2-0.02,0.4-0.07,0.55c-0.05,0.12-0.13,0.23-0.25,0.32c-0.51-0.6,0.05-2.1-0.72-2.08
						c0.1,0.38,0.2,0.79,0.3,1.24c-0.19,0.47-0.44,0.37-0.63,0.31c-0.19-0.06-0.33-0.12-0.3,0.19c1.05,0.99-0.41,3.42-0.25,4.52
						l-0.1-0.4l-0.5,1.7c-0.02,0.02-0.04,0-0.06,0.01c0.06,0.03,0.12,0.06,0.19,0.08c-0.52,0.68-0.89,1.95-0.77,3.36
						c0.6,0.54,0.2,4.47,0.7,5.12c-0.15-0.59-0.16-1.1,0-1.84l0.72,0.12c-0.01,1.33-0.67,0.08-0.24,1.36c0.98-0.22,0-1.84,0.11-2.77
						c0.22,0.34,0.42,0.81,0.52,1.39c0.04-1.87,0.37-3.66-0.6-4.95c0.21-0.53,0.62-0.28,0.72,0.12c-0.57-1.36,0.56-0.99,0.04-2.15
						c0.91,0.4,0.47,2.8,0.99,3.96c-0.72,1.73-0.04,3.99,0.1,5.91c-0.67,0.08-1.24-1.28-1.63-0.52c-0.22,0.95-0.13,1.42,0.06,1.79
						c0.19,0.38,0.49,0.61,0.68,1.25c-0.17,1.03-0.7,0.39-0.98,0.74c-0.24,0.02-0.52,0.1-0.89,0.3c0.15-0.23,0.26-0.43,0.34-0.62
						l-0.06-0.14c-0.05,0.01-0.09,0.02-0.13,0.03c-0.59-0.06-0.55,0.05-0.54,0.27c0.02,0.2,0.05,0.48-0.29,0.56
						c0.33,0.1,0.46,0.3,1.21-0.15c0.4,0.18-0.16,0.65-0.48,0.88l0.23-0.1c-0.04,0.29-0.08,0.59-0.24,0.85
						c-0.15,0.26-0.45,0.5-1.1,0.73c0.46-0.91-1.14,0.16-1.56,0.1l0.25-0.28c-0.77,0.65-1.7,1.08-2.19,1.48l-0.02-0.15
						c-0.54,0.57-0.44,1.31-1.46,1.71c-0.04-0.3,0.71-1.6-0.27-0.9c-0.06-0.45,1.07-1.14,2.09-1.53c-1.02,0.4-1.83,0.07-0.7-0.62
						c-0.58-0.29-0.97,0.81-1.71,0.95c0.19,0.08,0.08,0.35,0.21,0.47c-0.39-0.61-2.28,1.23-2.07,1.68l0.94-0.99
						c0.37,0.46-0.86,1.59-0.24,1.61c-0.98-0.49-2.78,2.09-3.75,1.76l0.64,0.18c-1.04,0.45-1.89,1.07-2.7,1.75l-0.6,0.52
						c-0.21,0.18-0.36,0.33-0.67,0.57c-0.56,0.45-1.17,0.92-1.85,1.41c-0.49-0.2-1.02-0.44-1.58-0.72c0.74,0.23,1.11-0.02,1.58-0.04
						c0.34-0.4,0.71-0.72,1.49-0.99c-1.28,0.62-1.48,0.47-1.48,0.17c0.01-0.31,0.17-0.74-0.01-0.93c0-0.04-0.03-0.09-0.06-0.14
						c-1.14-1.07-0.94,0.53-1.62,0.5l1.35,0.56c-0.43,0.09-1.06-0.12-1.68-0.43c-0.55-0.26-1.11-0.63-1.69-1.03
						c-1.16-0.8-2.41-1.7-3.78-2.06c-0.03-0.36,0.57,0.13,0.95,0.21c-0.78-1.13-1.1-0.48-1.86-0.65c-1.04-0.7-2.35-1.75-1.17-1.92
						c-0.47-0.37-0.53-0.28-0.56-0.11c-0.03,0.17,0.02,0.44-0.42,0.32l-0.11-0.25c-0.27-0.03-0.57-0.07-0.87-0.11
						c-0.16-0.24-0.33-0.52-0.49-0.85c0.06-0.41,0.13-0.83,0.21-1.22c0.08-0.35,0.18-0.64,0.28-0.94c0.22-0.59,0.49-1.09,0.83-1.36
						c-0.14-2.84-1.65-0.99-1.92-3.06c0.38-1.16,0.56,0.22,0.84,0.33l-0.07-1.83c0.81,0.65,0.41,2.13,1.35,2.02
						c-0.96-1.53-0.27-2.07-0.9-4.13l-0.08,0.13c-0.65-0.91-0.2-3.02-0.32-4.22c0.39,0.49,0.44,1.81,0.58,2.69
						c0.32-1.34,0.01-4.74-0.84-5.9c0.07-0.42,0.18-1.24,0.33-1.6c0.15-0.4,0.32-0.42,0.49,0.24c0.01-0.28,0.01-0.52,0-0.73
						c0.73-0.5,0.68-0.81,0.74-1.14c0.03-0.16,0.09-0.33,0.31-0.55c0.23-0.22,0.45-0.38,0.95-0.61l0.25,0.6
						c2.68-0.53,3.94-3.31,6.47-3.84l-0.27-0.75c0.54,0.06,1.89-0.56,2.1-0.34l-1.08,0.95c0.52,0.01,0.71-0.17,0.92-0.45
						c0.21-0.27,0.43-0.64,0.82-0.9c0.17,0.08,0.37,0.22,0.58,0.43c0.01-0.14-0.27-0.53-0.59-0.94c-0.28-0.04-0.58-0.07-0.6-0.2
						l-0.93,0.62l-0.86,0.55c-0.43,0.28-0.87,0.55-1.32,0.81c-0.89,0.52-1.8,1.01-2.71,1.5L31.8,37.3l-0.68,0.38l-0.8,0.46
						l-1.96,1.18c0.01,0.82,0.04,1.64,0.09,2.44l0.02,0.3l0.02,0.21l0.04,0.41l0.11,0.83c0.1-0.2,0.2-0.44,0.35-0.3
						c-0.19,0.58,0.02,1.64-0.4,1.47l-0.06-0.19c0.18,1.38-0.78,2.63-0.77,3.46c0.53,0.54-0.22,2.86,0.69,2.24l-0.57,0.91
						c0.34,0.3,0.78,0.15,0.95,0.71c-0.07,0.95-0.43,0.97-0.66,0.22c-0.12,1.28-0.19,2.64-0.22,4.03c-0.01,0.7-0.01,1.4,0,2.1
						c0.02,1.07,0.04,2.15,0.05,3.21c0.82,0.43,1.63,0.86,2.43,1.28l0.47,0.23l0.38,0.18c0.25,0.12,0.5,0.24,0.75,0.36l-1.07-0.12
						c0.67,0.63,3.2,0.95,2,1.52c1.79,0.52,4.15,2.71,4.82,1.79c0.06,0.18,0.15,0.36,0.28,0.53c0.13,0.17,0.23,0.3,0.6,0.57
						c0.64,0.47,1.45,0.97,2.32,1.45c0.48-0.28,0.99-0.58,1.49-0.9c0.25-0.16,0.5-0.32,0.76-0.47l0.38-0.24l0.24-0.17
						c0.59-0.41,1.17-0.83,1.73-1.19c-0.85-0.63,1.67-1.26,2.04-1.98c0.67,0.48-1.46,1.71-1.25,2.17c1.69-2.29,6.67-2.81,6.68-5.03
						c0.31-0.09,0.35-0.02,0.29,0.1c0.44-0.24,1.18-0.28,1.65-0.45c0.09-0.44-0.92-0.04,0.06-0.74c0.86-0.4,0.66,0.33,1.12,0.35
						c0.63-0.59,1.48-1.24,2.21-1.85c0.07-0.06,0.23-0.18,0.36-0.28c0.13-0.1,0.26-0.2,0.39-0.3c0.24-0.19,0.46-0.38,0.64-0.54
						c0.36-0.33,0.57-0.6,0.59-0.79c-0.05-0.13-0.11-0.21-0.17-0.28c0.21-0.55,0.65-1.3,0.79-0.35c-0.15-1.12-0.22-2.02-0.24-2.36
						c-0.02-0.44,0-0.79,0.03-1.14c0.06-0.7,0.14-1.4-0.05-2.85c0.02,1.02,0.82,0.51,0.5,1.98c1.09-1.15-0.2-4.47,0.38-6.78
						l-0.7-0.94c-0.12-1.41,0.55-1.5,0.8-0.51c0.43-2.4,0-3.68,0-5.51c0.09-0.11,0.22-0.03,0.19,0.28l0.02-3.71
						c-0.07-0.17-0.17-0.53-0.3-0.83c-0.64-0.17-1.21-0.24-1.29,0.02c0.28,0,0.59,0.04,0.97,0.16
						C61.41,34.52,61.45,35.51,61.28,37.03z"/>
					<path class="st3" d="M60.29,33.87l-0.16,0l0.14,0.08C60.26,33.91,60.28,33.89,60.29,33.87z"/>
					<path class="st3" d="M56.3,56.27c0.31,0.02,0.54-0.01,0.71-0.06C56.85,56.18,56.64,56.18,56.3,56.27z"/>
					<path class="st3" d="M37.13,26.05c0.83,0.76,1.28-0.92,2.51-1.28c-0.96,0.72-0.36,1.1-0.1,1.31c0.24-1.11,0.86-1.11,1.42-1.09
						c0.18,0.21,0.36,0.42,0.57,0.61c0.23,0.2,0.41,0.32,0.84,0.52c-0.3,0.34-0.98,0.02-1.12,0.52c0.16,0,0.32,0,0.59,0.07
						c0.38,0.14,0.77,0.27,1.14,0.38c0.73,0.22,1.38,0.32,1.71,0.07c2.03,1.19,3.32,2.27,4.6,2.89c-1.62-0.6-0.66,0.5-2.07,0.43
						c1.94,0.11,5.8,1.15,8.52,1.49c-0.17,0.88-0.11,1.02-0.77,1.52c2.13,1.91,1.14-0.23,3.25,1.31l-0.95-0.74
						c1.18,0.4,1.9-0.09,2.86-0.17l-1.93-1.08l-1.38-0.75c0.16-0.24,0.65-0.1,1.17,0.13c0.28,0.13,0.48,0.22,0.82,0.4
						c0.38,0.2,0.72,0.38,0.96,0.47c0.93,0.15,0.43-0.29-0.3-0.85l-0.27-0.21l-0.14-0.1l-0.07-0.07c-0.09-0.09-0.17-0.17-0.23-0.24
						c-0.12-0.15-0.16-0.28-0.02-0.36c-0.63,0.16-1.62-0.6-2.4-0.83l0.04-0.34c-1.1-1.03-2.2-0.77-3.34-1.46
						c-0.06-0.14-0.04-0.2,0.01-0.24c-0.58,0.06-1.2,0.19-1.97-0.12l0.55,0.28c-1.35,0.06-4-0.96-2.83,0.67l-2.63-1.83
						c0.72-0.52,1.91-1.26,3.54-0.4l0.36-0.19c-0.96-1.1-3.68-1.45-3.26-0.39c-0.92,0.41-1.82,0.05-2.73-0.55
						c-0.46-0.3-0.89-0.64-1.4-1.01c-0.54-0.39-1.13-0.79-1.68-1.1c-0.43,0.26-0.84,0.57-1.17,0.9c-0.27-0.32,0.44-0.96,1.18-1.66
						c0.22,0.04,0.44,0.08,0.62,0.09c0.89,0.46,1.56,0.84,1.4,1.26c2.82,1.33,0.35-1.76,3.19,0.14c1.3,1.08-2.19-0.3-0.11,1.02
						l2.26-0.38c-1.33-0.75-2.64-1.24-3.79-1.71c-0.21-0.09-0.42-0.18-0.62-0.26c-0.34-0.17-0.68-0.34-1.01-0.51
						c-0.66-0.34-1.3-0.67-1.92-0.99c-0.99,0.61-1.93,1.18-2.83,1.74c-0.52,0.33-1.03,0.63-1.51,0.9c-0.96,0.55-1.81,0.99-2.53,1.33
						c-1.43,0.69-2.3,1-2.3,1l-12.46,7.24l0.27,18.34c0.21,3.14,0.15,4.27,1.61,5.52c0.3-0.65,0.16-2.57,0.67-1.92
						c-0.55-0.34-0.84-1.53-0.79-3.17c0.53-0.17,0.26,1.5,0.38,1.08l0.04-0.31c0.27,0.17,0.46,0.45,0.47,0.96
						c0.81-1.83,0.64-5.28-0.38-6.59c0.55-1.49,0.83,1.02,1.25,1.79c0.21-2.63,0.29-4.83,0.32-7.05c0.02-1.95,0.03-3.91,0.05-6.26
						c-0.3-0.17-0.46-0.3-0.58-0.44c-0.11-0.22,0.12-0.32,0.17-0.86c0.2,0.02,0.39,0.05,0.56,0.09c-0.13-0.03-0.17-0.24-0.26-0.42
						c-0.1-0.18-0.27-0.33-0.85-0.12c0.86-0.27,1.36-0.54,1.77-0.87c0.41-0.33,0.68-0.7,0.91-1.1c0.46-0.78,0.75-1.63,1.56-2.32
						l0.12,0.5c1.47-0.92,1.9-1.18,3.08-2.14c2.86-0.55-2.05,1.32-0.8,1.99l0.59-0.56c-0.17,0.62-0.22,1.59-0.82,2.31
						c1.94-1.98,3.48-1.6,5.7-3.54c-0.03,0.64-2.09,2.28-2.68,2.68c0.88-0.43,2.21-1.63,2.52-1.23l-0.16-0.69
						c1.46-0.92,0.11,0.66,0.81,0.77C38.45,28.18,34.34,28.07,37.13,26.05z"/>
					<path class="st3" d="M59.24,50.96c0.06-0.49,0.03-0.92-0.04-1.3C59.19,50.09,59.2,50.53,59.24,50.96z"/>
					<path class="st3" d="M57.96,42.86c-0.1-0.04-0.18-0.09-0.25-0.15C57.77,42.85,57.85,42.9,57.96,42.86z"/>
					<path class="st3" d="M57.01,42.05c0.31-0.2,0.31,0.32,0.7,0.65C57.49,42.18,57.49,40.83,57.01,42.05z"/>
					<path class="st3" d="M42.37,42.75c-0.21-0.23-0.49-1.28-0.64-1.01l0.35,1.55L42.37,42.75z"/>
					<path class="st3" d="M41.84,45.93l-0.16,1.55l0.99,0.96C42.55,46.8,41.97,47.57,41.84,45.93z"/>
					<path class="st3" d="M41.63,50.26l-0.25-0.33C41.5,50.25,41.57,50.31,41.63,50.26z"/>
					<path class="st3" d="M42.02,50.3l0.71,0.55l-0.63-1.96l-0.08,0.77c-0.23,0.03-0.29,0.52-0.4,0.6l0.53,0.72
						C42.09,50.8,41.95,50.44,42.02,50.3z"/>
					<path class="st3" d="M42.17,52c0.07-0.05,0.12-0.11,0.19-0.15C42.28,51.84,42.22,51.9,42.17,52z"/>
					<path class="st3" d="M41.19,56c0.2-0.67,0.59-0.37,0.85-0.72c0.08-0.73-0.11-0.78-0.29-0.93c-0.19-0.13-0.37-0.37-0.26-1.05
						c0.32,0.74,0.39,0.43,0.45,0.01c0.05-0.44,0.07-1.07,0.25-1.31c-0.61,0.3-0.98,1.07-1.05,2.83c0.13-0.07,0.27-0.14,0.4-0.22
						C41.58,55.33,41.32,55.2,41.19,56z"/>
					<path class="st3" d="M47,53.03l-0.8,1.12c-0.14-0.1-0.74,0.13-1.09,0.18c-0.4,0.07-0.7,0.05-0.7-0.31
						c-0.36,0.29-0.45,0.66-0.88,1.08c-0.28-0.22-0.27-0.51-0.99,0.38c0.81-0.18,1.22-0.23,1.56-0.27c0.37-0.06,0.69-0.13,1.84-0.63
						c0.02,0.15-0.28,0.28-0.57,0.4L47,54.51C46.77,53.75,48.64,52.71,47,53.03z"/>
					<path class="st3" d="M49.37,52.32c-1.16,0.65-1.53,1.51-0.76,1.57l2.28-1.77C50.16,52.52,49.28,53.05,49.37,52.32z"/>
					<path class="st3" d="M50.86,51.54c0.03,0,0.06,0,0.1,0c0.17-0.12,0.41-0.33,0.54-0.69c0.12-0.35,0.12-0.85-0.19-1.27
						c0.1,1.52-0.81,0.59-0.42,1.92C50.88,51.51,50.87,51.52,50.86,51.54z"/>
					<path class="st3" d="M51.51,42.3l-0.42,2.61c-0.83,0.49-0.26-1.25-0.63-2.05c-0.17,2.22,0.1,1.51,0.62,3.19
						c-0.05,0.64,0.38,1.62,0.61,2.37C51.01,45.04,53.03,44.87,51.51,42.3z"/>
					<polygon class="st3" points="50.67,47.52 51.01,47.82 50.75,46.57 					"/>
					<path class="st3" d="M49.12,36.86c-0.91-1.61-2.91-0.94-4.28-2.17c0.19,0.04,0.12-0.1,0.5-0.02l-1.38-0.63L44,33.81
						c-0.1,0.28-0.52,0.28-1.02,0.23c-0.54-0.08-1.16-0.22-1.48-0.13c0.61,0.68,0.78,0.57,1.03,0.5c0.24-0.07,0.45-0.15,0.88,0.47
						c-0.42,0.08-0.82,0.32-1.2,0.36c0.96,0.18,1.33-0.01,1.85-0.11c0.92,0.42,0.49,0.57,0.45,0.8c1.15,0.23,1.57-0.52,2.99,0.48
						c0.73,0.98-0.96,0.4,0.8,1.11c-0.19-0.63,0.21-0.37,0.78,0.02c0.55,0.39,1.3,0.93,1.89,0.92c0.3,0.21,0.55,0.42,0.73,0.61
						c-0.25,1.11-0.65,1.58-0.9,1.45c0.72-0.32,1.34,1.08,1.55,2.11l-0.3-1.19l-0.3-1.29c0.28-0.38,0.57-0.82,0.85-1.34
						c-0.02-0.08-0.04-0.17-0.06-0.24c-0.88-0.29-1.51-0.55-2.11-0.87c-0.33-0.17-0.53-0.29-0.77-0.43
						c-0.23-0.15-0.47-0.3-0.72-0.46L49.12,36.86z"/>
					<path class="st3" d="M42.22,35.24c-0.14-0.02-0.25-0.01-0.4-0.04C41.94,35.29,42.06,35.27,42.22,35.24z"/>
					<path class="st3" d="M50.55,40.88c-0.06-0.13-0.11-0.25-0.17-0.36c-0.08,0.11-0.16,0.22-0.24,0.31
						C50.27,40.84,50.41,40.85,50.55,40.88z"/>
					<path class="st3" d="M41.34,35.45c0.14,0.11,0.28-0.14,0.11-0.26c-0.12,0.09-0.22,0.18-0.3,0.29L41.34,35.45z"/>
					<path class="st3" d="M40.53,34.92c-0.2-0.07-0.43-0.13-0.7-0.16c-0.07,0.2-0.09,0.36-0.18,0.57L40.53,34.92z"/>
					<path class="st3" d="M30.33,60.03c0.3-1.01-0.29-0.7-0.71-0.79c-0.06,0.89,0.06,0.84,0.23,0.7
						C30.02,59.8,30.23,59.62,30.33,60.03z"/>
					<path class="st3" d="M46.97,61.83c-1.19,0.24-1.82,1.25-2.82,1.8C45.18,63.37,46.3,62.54,46.97,61.83z"/>
					<path class="st3" d="M53.48,55.87c-0.16,0.3-0.45,0.58,0.12,0.34l-0.46,1.45C54.77,57.14,53.75,56.24,53.48,55.87z"/>
					<path class="st3" d="M55.98,51.27l0.4,1.58l0.03-0.82c0.41,0.4,0.61,0.69,0.95,1.29C57.13,52.15,56.73,51.03,55.98,51.27z"/>
					<path class="st3" d="M57.54,54.51c-0.01-0.04-0.02-0.09-0.03-0.14c-0.01-0.04-0.02-0.09-0.03-0.21
						C57.35,54.38,57.2,54.31,57.54,54.51z"/>
					<path class="st3" d="M57.46,53.53c-0.05-0.08-0.08-0.14-0.12-0.21c0.05,0.28,0.1,0.57,0.13,0.84
						C57.57,54.03,57.65,53.86,57.46,53.53z"/>
					<path class="st3" d="M56.49,50.08l-0.11-2.74l-0.2,1.04C56.81,48.61,55.8,49.65,56.49,50.08z"/>
					<path class="st3" d="M57.04,36.61c0.21-0.11,0.41-0.25,0.62-0.4c0.01-0.05,0.01-0.09,0.01-0.14c-0.19-0.11-0.46-0.19-0.7-0.22
						l-0.18-0.02c-0.06,0-0.09,0-0.22-0.04c-0.21-0.07-0.43-0.14-0.63-0.2c-0.81-0.28-1.49-0.62-1.68-1.28
						c0.46,0.72-1.6-0.13,0.09,1.08c0.44-0.02,1.11,0.2,1.81,0.53c0.2,0.09,0.41,0.19,0.62,0.29c0.12,0.06,0.23,0.14,0.31,0.21
						C57.07,36.48,57.06,36.55,57.04,36.61z"/>
					<path class="st3" d="M53.5,33.27c0.34-0.01,0.04-0.34-0.07-0.6c-0.5-0.38-1.23-0.48-1.07-0.08
						C53.23,32.14,52.69,33.37,53.5,33.27z"/>
					<path class="st3" d="M46.54,29.21c0.44,0.25,1.08,0.56,0.53,0.04c-1.33-0.75-1.35,0.06-2.23,0.04
						C45.75,30.26,47.2,29.99,46.54,29.21z"/>
					<path class="st3" d="M35.25,23.83c0.41,0.38,1.43-0.28,1.59-0.58C36.54,23.53,35.82,23.75,35.25,23.83z"/>
					<polygon class="st3" points="37.19,27.84 37.62,27.73 37.66,26.77 					"/>
					<polygon class="st3" points="29.44,32.69 28.68,33.71 30.15,32.79 					"/>
					<path class="st3" d="M27.85,33.43l-1.31,0.78l0.57-0.08C27.82,33.91,27.41,33.69,27.85,33.43z"/>
					<path class="st3" d="M24.02,35.7c0.05-0.09,0.16-0.05,0.31-0.04l1.04-0.98l-0.73,0.54C24.42,35.39,24.07,35.63,24.02,35.7z"/>
					<path class="st3" d="M19.92,57.85c-0.54-0.34-0.2,1.05-0.32,1.47C19.74,59.4,20.43,58.5,19.92,57.85z"/>
				</g>
			</g>
		</g>
	</g>
</g>
<g>
	<rect x="119.19" y="41.37" class="st4" width="4.84" height="4.84"/>
	<path class="st4" d="M133.1,32.52h-16.03h-1.45h-3.43v16.51l-10.26-16.39v-0.11h-4.88v25.86h4.88V41.81l10.26,16.39v0.18h0.11l0,0
		l0.01,0h4.76V37.01l14.74,0.07c0,0,4.82,0.47,4.82,8.37c0,7.9-4.7,8.45-4.7,8.45h-3.78h-1.16h-2.96v-5.22h-4.84v9.71h1.86h2.98
		h8.52c0,0,9.8-0.39,9.8-12.93C142.35,32.92,133.1,32.52,133.1,32.52z"/>
</g>
</svg>
